<svg xmlns="http://www.w3.org/2000/svg" viewBox="0 0 633 765.5">
  <style>
    .p { fill: #000; }
    @media (prefers-color-scheme: dark) {
      .p { fill: #fff; }
    }
  </style>
  <path class="p" d="M584.3 611.8c-5.1-.4-9.5-.6-13.9-1-46.1-4.3-89.3-17.1-128.5-42.3-15-9.7-28.6-21-40.7-34.2-1.9-2.1-3-4.3-3.5-7.2-2-11.3-4.1-22.6-6.3-33.9-.6-3-.3-5.5 1.4-8.2 3.7-6.2 7.1-12.5 10.6-18.8.7-1.3 1.4-2.7 2.3-4.6H229.3c1 1.9 1.6 3.3 2.3 4.6 3.7 6.6 7.3 13.1 11.1 19.6 1.2 2.1 1.5 4 1 6.3-2.4 12.4-4.8 24.8-6.8 37.2-.5 3.2-1.8 5.6-4 7.9-17.4 18-37.4 32.4-59.7 43.7-28.8 14.7-59.3 23.7-91.2 27.9-9.3 1.2-18.8 1.9-28.1 2.8-.9.1-1.9 0-3.4 0 .4-1.8.6-3.3 1.1-4.8 10.8-33.7 28.3-63.5 54.8-87 25.2-22.3 47.1-47.3 66.9-74.4 17.3-23.8 34.3-47.8 53.3-70.3 6.2-7.3 12.8-14.4 19.9-20.7 14.6-13.1 31.9-20.2 51.4-22.6 18.6-2.3 37-2.2 55.2 3 22 6.2 40.3 18.3 55.6 35.2 11.9 13.2 21.7 28 31.7 42.7 11.7 17.3 23.2 34.9 35.5 51.8 13.2 18.3 28.8 34.7 45.7 49.7 21.1 18.7 39.1 40.1 51.2 65.8 4.3 9.1 7.3 18.7 10.9 28.1.1 1 .2 1.9.6 3.7zM386.4 2c5.6 2.4 9.7 5.6 13.3 9.5 7.8 8.5 11.6 18.7 12.5 29.9.3 3.4 1.5 4.9 4.6 6.2 23.1 9.3 39.5 25.5 48.9 48.7 7.9 19.6 14.7 39.6 18.1 60.5 2.3 13.8 3.1 27.6.5 41.5-2.8 15.4-9.6 28.8-21.4 39.3-14.4 12.8-30.9 22-49.6 27.1-6.5 1.8-13.3 2.2-20 1.1-10.1-1.7-18.1-7-24.3-15-7.2-9.3-12.4-19.7-16.7-30.6-8.6-22.1-10.5-45-7.8-68.4 2.2-19.6 7.6-38.5 12.6-57.5 2.2-8.5 4.9-16.9 8.3-25 2.2-5.4 5.8-10.3 9.2-15.1 3.3-4.6 7.8-8.1 13.1-10.2 2.6-1 3.2-2.6 3.2-5.1-.1-11.6-1.7-22.9-4.1-34.2-.1-.5-.1-1.2-.4-2.7zM220.1 46c4.5-25.4 11.5-37.2 26.4-43.7-2 13.5-5 26.5-3.9 39.8.3.3.4.7.7.8 10.9 4.4 18 12.7 22.9 22.9 3.1 6.5 5.9 13.2 7.7 20.1 4.4 16.7 8.7 33.4 12.2 50.3 5.2 25.2 5.4 50.5-2.3 75.4-3.7 11.8-8.8 23-15.5 33.4-1.7 2.7-3.6 5.3-5.7 7.7-9.8 11.4-22.4 15.4-37.1 13.2-4.4-.7-8.8-1.8-13-3.3-14.1-5-27.1-12.3-38.7-21.7-16.9-13.7-25-31.9-26.3-53.4-1.1-18.3 1.9-36.1 7.1-53.5 3.5-11.9 7.7-23.7 12.1-35.4 9.2-24.5 26.2-41.7 50.6-51.4.8-.3 1.7-.7 2.8-1.2z"/>
  <path class="p" d="M405.1 566.7c53.8 43.3 115.6 61.9 183.3 65 .9 5 2.8 10 2.3 14.7-1.4 14.9-2.5 29.8-8.2 44-5 12.4-11.6 23.9-20.6 33.8-20.1 22.3-45 35.4-74.9 38.9-12.4 1.5-35.7-.6-46.6-4.1-11.7-63.9-23.5-128.1-35.3-192.3zM46.6 631.8c67.6-2.8 129.3-20.9 183.1-64.4-.8 4.6-1.3 8.2-2 11.8-9.9 53.6-19.7 107.2-29.6 160.7-.9 5-1.9 10-2.8 15.1-.3 1.6-.6 3.1-2.6 3.5-18.8 4.4-37.9 7.4-57 3.2-39.7-8.5-67.6-31.7-82.1-70.1-6.6-17.4-8.8-35.6-7.7-54.2.1-1.7.4-3.4.7-5.6zM563.4 245.5c-.1-10.2-2.2-20.4-4.2-31.1 1.4.6 2.4.8 3.3 1.3 11.8 7.1 18.6 17.7 21.4 31 .7 3.1 2.1 5.4 4.1 7.8 4.5 5.5 9 11.3 12.6 17.4 10 17 18.2 34.9 24.8 53.4 6.1 17.2 7.7 35.2 6.1 53.5-1 11.4-3.6 22.4-7.9 33-2.9 6.9-6.9 12.9-12.4 18-11.2 10.2-23.7 17.8-38.9 20.2-15.1 2.4-29.2.1-41.6-9.8-8.4-6.8-15.5-14.8-21.4-23.8-5.2-8.1-9.5-16.7-13-25.6-2.1-5.4-3.1-11-3.5-16.8-1.1-18.7 3-36.5 10-53.8 7.5-18.7 18.1-35.6 30.4-51.4 7.8-10 17.1-18.1 29.3-22.5.2-.1.4-.4.9-.8zM73.7 215c-1.7 10.2-3.9 20.3-4 30.8 16.8 6.1 27.7 18.6 37.4 32.6 10.8 15.6 20 31.9 26.2 49.9 4.7 13.7 7.5 27.7 7.2 42.3-.2 8.1-1.7 15.8-4.9 23.3-6.3 14.7-14.2 28.3-25.6 39.6-1 1-2.1 2-3.1 3-15.8 14.8-34.2 17.5-54.4 11.6-14.7-4.3-26.5-13.2-36.5-24.6-2.6-2.9-4.3-6.7-5.9-10.4-6.8-15-9.2-30.8-9.1-47.2.1-12.5 2-24.8 5.3-36.9.4-1.4.7-2.8 1.3-4.1 7-17.3 14.4-34.5 23.5-50.9 4.4-7.8 9.4-15.2 15.8-21.6 1-1 1.5-2.7 1.8-4.2 2.4-11.3 7.2-21.2 16.3-28.6 2.4-2 5.2-3.6 7.8-5.4.3.4.6.6.9.8zM301.3 642.7h31.4c1.1 23.2 2.3 46.3 3.4 69.7H297c1.3-23.2 2.8-46.3 4.3-69.7zM302.7 619.5c1.4-22.9 2.8-45.1 4.2-67.7h20.7c1.1 2.7 4.3 58.9 3.7 67.7-9.3.2-18.6.1-28.6 0z"/>
</svg>